<svg width="55" height="41" viewBox="0 0 55 41" fill="none" xmlns="http://www.w3.org/2000/svg">
<g clip-path="url(#clip0_38_1657)">
<path d="M18.0469 29.0417V39.2917L22.3438 35.875L26.6406 39.2917V33.3542V29.0417H18.0469Z" fill="#1F8B48"/>
<path d="M1.71875 15.5458V15.5458C1.71875 11.0352 1.71875 8.77992 2.50886 7.02081C3.4118 5.01052 5.02094 3.40138 7.03124 2.49844C8.79035 1.70833 11.0456 1.70833 15.5562 1.70833H49.2813C51.1669 1.70833 52.1097 1.70833 52.6955 2.29411C53.2812 2.8799 53.2812 3.82271 53.2812 5.70833V17.3542C53.2812 19.2398 53.2812 20.1826 52.6955 20.7684C52.1097 21.3542 51.1669 21.3542 49.2812 21.3542H9.40625C5.16056 21.3542 1.71875 24.796 1.71875 29.0417V29.0417C1.71875 33.2873 5.16056 36.7292 9.40625 36.7292H18.0469M26.6406 36.7292H53.2812" stroke="#0F172A" stroke-width="2" stroke-linecap="round" stroke-linejoin="round"/>
<path d="M9.45312 29.0417H53.2812" stroke="#0F172A" stroke-width="2" stroke-linecap="round" stroke-linejoin="round"/>
<path d="M18.0469 29.0417V39.2917L22.3438 35.875L26.6406 39.2917V29.0417" stroke="#0F172A" stroke-width="2" stroke-linecap="round" stroke-linejoin="round"/>
</g>
<defs>
<clipPath id="clip0_38_1657">
<rect width="55" height="41" fill="white"/>
</clipPath>
</defs>
</svg>
